<?xml version="1.0" encoding="UTF-8" standalone="no"?>
<svg
   width="424"
   height="282.66699"
   viewBox="0 0 424 282.66699"
   fill="none"
   version="1.1"
   id="svg1"
   xmlns="http://www.w3.org/2000/svg"
   xmlns:svg="http://www.w3.org/2000/svg">
  <defs
     id="defs1" />
  <path
     d="m 237.44001,282.667 h 156.88 c 5.006,0 9.798,-1.759 14.133,-4.24 4.336,-2.481 8.805,-5.596 11.307,-9.894 2.502,-4.297 4.242,-9.173 4.24,-14.134 -0.002,-4.962 -1.734,-9.836 -4.24,-14.131 l -106,-182.321 c -2.502,-4.297 -5.559,-7.413 -9.893,-9.894 -4.335,-2.48 -10.542,-4.24 -15.547,-4.24 -5.005,0 -9.799,1.76 -14.133,4.24 -4.335,2.481 -7.392,5.597 -9.894,9.894 l -26.853,46.64 -53.707,-90.457 c -2.504,-4.296 -5.557,-8.823 -9.893,-11.303 -4.336,-2.481 -9.127,-2.827 -14.133,-2.827 -5.006,0 -9.798,0.346 -14.134,2.827 -4.335,2.48 -8.802,7.007 -11.306,11.303 L 2.826711,240.268 C 0.32081097,244.563 0.00221097,249.437 1.0965335e-5,254.399 -0.00218903,259.36 0.32461097,264.235 2.826711,268.533 c 2.5021,4.297 6.9712,7.413 11.3066,9.894 4.3355,2.481 9.127,4.24 14.1334,4.24 h 98.933299 c 39.201,0 67.734,-17.585 87.627,-50.88 l 48.053,-83.387 25.44,-43.813 77.733,132.853 h -103.173 z M 125.78701,237.44 H 56.533011 L 159.70701,59.36 l 52.293,89.04 -34.639,60.384 c -13.21,21.603 -28.272,28.656 -51.574,28.656 z"
     fill="#00dc82"
     id="path1" />
</svg>
